<svg version="1.1" viewBox="0 0 96 48" xmlns="http://www.w3.org/2000/svg">
  <g transform="matrix(3.7795 0 0 3.7795 -2.3043 -3.9031)">
    <rect x=".60967" y="1.0327" width="25.4" height="12.7" fill="#fff"/>
    <path d="m20.401 1.7494c-1.5526 0-1.5526 1.6001-1.5526 1.6001v9.6667h0.51754v-5.1812h5.1754v5.1812h0.51754v-9.6667c0-1.6461-1.5526-1.6001-1.5526-1.6001zm0 0.45226h3.1052c1.0351 0 1.0351 1.1478 1.0351 1.1478v4.0333h-5.1754v-4.0576c0-1.0797 1.0351-1.1235 1.0351-1.1235z" stroke-width=".013942"/>
    <g transform="matrix(.045982 0 0 .045982 .67861 1.2028)">
      <path d="m139.62 184v61.128s0 12.226-12.226 12.226h-48.902s-12.226 0-12.226-12.226v-12.226h6.1128v12.226s0 6.1128 6.1128 6.1128h48.902s6.1128 0 6.1128-6.1128v-61.128z" stroke-width=".12226"/>
      <path d="m192.56 184v73.353h6.1128v-73.353z" stroke-width=".12226"/>
      <path d="m324.97 208.45v-12.226s0-12.226-12.226-12.226h-48.902s-12.226 0-12.226 12.226v48.902s0 12.226 12.226 12.226h48.902s12.226 0 12.226-12.226v-18.338h-30.564v6.1128h24.451v12.226s0 6.1128-6.1128 6.1128h-48.902s-6.1128 0-6.1128-6.1128v-48.902s0-6.1128 6.1128-6.1128h48.902s6.1128 0 6.1128 6.1128v12.226z" stroke-width=".12226"/>
      <path d="m19.181 11.445v10.471l41.883 10.471v-10.471zm115.18 0-41.883 62.824v10.471h80.275l3.4901 10.471h10.471l-10.471-31.412h-10.471l3.4901 10.471h-66.314l41.883-62.824zm-115.18 41.883v10.471l41.883 10.471v-10.471zm41.883 52.353v41.883s0 10.471-10.471 10.471h-31.412v10.471h31.412s20.941 0 20.941-20.941v-41.883zm31.412 0v62.824h94.236v-62.824zm10.471 10.471h73.295v41.883h-73.295z"/>
      <path d="m225.47 11.445v104.71h125.65v-104.71zm10.471 10.471h104.71v20.941h-104.71zm0 31.412h104.71v20.941h-104.71zm0 31.412h104.71v20.941h-104.71zm-31.412 41.883v10.471h39.265l-7.853 31.412h10.471l7.853-31.412h68.059l7.853 31.412h10.471l-7.853-31.412h39.265v-10.471h-52.353z"/>
    </g>
  </g>
</svg>
